<svg width="101" height="101" viewBox="0 0 101 101" fill="none" xmlns="http://www.w3.org/2000/svg">
<circle cx="50.5" cy="50.5" r="49.5" fill="white" stroke="#0D2164" stroke-width="2"/>
<path d="M41.3438 21.1289C41.3438 21.1289 44.4014 27.4222 46.5794 35.3123C47.8883 40.0453 48.5585 44.9354 48.6161 49.8465L48.747 60.7733" stroke="#002346" stroke-width="0.523565" stroke-linecap="round" stroke-linejoin="round"/>
<path d="M42.4545 23.527C42.4545 23.527 35.5382 20.0401 35.2398 16.0243C35.1508 14.8097 36.1665 13.8515 37.3759 14.0191C39.1037 14.2652 41.5697 16.0034 42.4545 23.527Z" fill="#7CCF92" stroke="#002346" stroke-width="0.523565" stroke-miterlimit="10"/>
<path d="M43.3887 25.6944C43.3887 25.6944 42.5196 20.0504 44.3259 17.9404C45.1008 17.0346 46.5929 17.443 46.8756 18.6053C47.2055 19.9561 46.8652 22.2755 43.3835 25.6944H43.3887Z" fill="#7CCF92" stroke="#002346" stroke-width="0.523565" stroke-miterlimit="10"/>
<path d="M43.3873 25.6942C43.3873 25.6942 38.4134 21.5685 35.5128 22.846C34.6856 23.2125 34.3453 24.2492 34.8375 25.0083C35.539 26.0764 37.5705 27.1602 43.382 25.6942H43.3873Z" fill="#7CCF92" stroke="#002346" stroke-width="0.523565" stroke-miterlimit="10"/>
<path d="M45.4453 31.6786C45.4453 31.6786 45.6338 24.8774 48.838 23.2649C49.6338 22.867 50.6129 23.3644 50.7438 24.2439C50.9375 25.5476 50.1888 27.9037 45.4453 31.6786Z" fill="#7CCF92" stroke="#002346" stroke-width="0.523565" stroke-miterlimit="10"/>
<path d="M45.45 31.6789C45.45 31.6789 39.1829 25.8254 36.2929 28.7103C36.2929 28.7103 34.8478 32.6841 45.45 31.6789Z" fill="#7CCF92" stroke="#002346" stroke-width="0.523565" stroke-miterlimit="10"/>
<path d="M46.7891 36.0143C46.7891 36.0143 47.5744 30.0456 50.5744 28.8676C51.5849 28.4749 52.632 29.3441 52.4278 30.4069C52.1765 31.7106 50.9619 33.6792 46.7891 36.0143Z" fill="#7CCF92" stroke="#002346" stroke-width="0.523565" stroke-miterlimit="10"/>
<path d="M46.7883 36.0135C46.7883 36.0135 42.5003 31.9716 39.7673 33.3329C39.0029 33.7151 38.6155 34.6313 38.9663 35.4114C39.4532 36.4952 41.16 37.6418 46.7883 36.0135Z" fill="#7CCF92" stroke="#002346" stroke-width="0.523565" stroke-miterlimit="10"/>
<path d="M47.7188 40.4485C47.7188 40.4485 49.1167 35.1604 52.5984 34.8515C53.0382 34.8149 53.4413 35.129 53.478 35.5688C53.5617 36.595 52.902 38.5636 47.7188 40.4485Z" fill="#7CCF92" stroke="#002346" stroke-width="0.523565" stroke-miterlimit="10"/>
<path d="M47.7186 40.449C47.7186 40.449 44.4463 38.25 41.928 38.4752C40.2683 38.6218 40.2316 41.0406 41.8861 41.2501C43.0432 41.3966 44.86 41.2501 47.7239 40.449H47.7186Z" fill="#7CCF92" stroke="#002346" stroke-width="0.523565" stroke-miterlimit="10"/>
<path d="M48.5 44.8463C48.5 44.8463 49.2278 39.9772 52.4634 39.8882C52.7723 39.8777 53.0707 40.04 53.2226 40.307C53.6624 41.0767 53.8665 42.8673 48.5 44.8463Z" fill="#7CCF92" stroke="#002346" stroke-width="0.523565" stroke-miterlimit="10"/>
<path d="M48.1382 44.8462C47.7508 44.4954 43.7613 41.7572 41.4785 43.1499C41.0544 43.4064 40.8764 43.9562 41.1382 44.3802C41.4785 44.9352 42.2796 46.0818 48.1435 44.8462H48.1382Z" fill="#7CCF92" stroke="#002346" stroke-width="0.523565" stroke-miterlimit="10"/>
<path d="M48.6133 49.8471C48.6133 49.8471 44.2311 45.3235 42.0635 47.8523C42.0635 47.8523 40.718 50.3968 48.6133 49.8471Z" fill="#7CCF92" stroke="#002346" stroke-width="0.523565" stroke-miterlimit="10"/>
<path d="M48.6172 49.8464C48.6172 49.8464 50.2088 45.0976 52.8476 45.2599C53.1198 45.2756 53.345 45.4851 53.3973 45.7573C53.5596 46.6264 53.345 48.616 48.6172 49.8516V49.8464Z" fill="#7CCF92" stroke="#002346" stroke-width="0.523565" stroke-miterlimit="10"/>
<path d="M48.6719 53.3232C48.6719 53.3232 50.7033 49.3337 53.2688 49.5012C53.7452 49.5326 54.0803 49.9463 54.0018 50.4175C53.8395 51.3546 52.897 52.873 48.6719 53.3232Z" fill="#7CCF92" stroke="#002346" stroke-width="0.523565" stroke-miterlimit="10"/>
<path d="M48.6738 53.3234C48.6738 53.3234 44.9565 48.9359 43.1502 51.1035C43.1502 51.1035 41.9199 54.1035 48.6738 53.3234Z" fill="#7CCF92" stroke="#002346" stroke-width="0.523565" stroke-miterlimit="10"/>
<path d="M48.7656 56.3232C48.7656 56.3232 52.2107 52.8781 54.0379 52.9828C54.4725 53.009 54.7762 53.4278 54.7029 53.8572C54.551 54.7839 53.6086 56.4645 48.7656 56.3232Z" fill="#7CCF92" stroke="#002346" stroke-width="0.523565" stroke-miterlimit="10"/>
<path d="M48.7628 56.3233C48.7628 56.3233 46.5534 53.5484 44.5272 54.0562C43.9251 54.2081 43.5586 54.8782 43.8728 55.4123C44.2235 56.0196 45.3858 56.606 48.7628 56.3233Z" fill="#7CCF92" stroke="#002346" stroke-width="0.523565" stroke-miterlimit="10"/>
<path d="M48.5703 59.7683C48.5703 59.7683 50.7379 57.3285 53.1986 57.1453C54.0468 57.0824 54.4971 58.14 53.8426 58.6793C53.1567 59.2448 51.6803 59.7631 48.5703 59.7631V59.7683Z" fill="#7CCF92" stroke="#002346" stroke-width="0.523565" stroke-miterlimit="10"/>
<path d="M48.7331 59.7683C48.7331 59.7683 46.5656 57.3285 44.1048 57.1453C43.2566 57.0824 42.8064 58.14 43.4608 58.6793C44.1467 59.2448 45.6232 59.7631 48.7331 59.7631V59.7683Z" fill="#7CCF92" stroke="#002346" stroke-width="0.523565" stroke-miterlimit="10"/>
<path d="M72.7607 44.9619C72.7607 44.9619 62.9072 48.1609 55.7344 60.8259" stroke="#002346" stroke-width="0.523565" stroke-linecap="round" stroke-linejoin="round"/>
<path d="M71.1875 45.6428C71.1875 45.6428 74.2608 42.1192 76.9886 42.5328C77.5907 42.6218 78.0357 43.1506 77.9991 43.7579C77.9363 44.8312 76.8944 46.3391 71.1875 45.6428Z" fill="#7CCF92" stroke="#002346" stroke-width="0.523565" stroke-miterlimit="10"/>
<path d="M69.3301 46.6113C69.3301 46.6113 68.3876 41.6113 69.9897 40.2448C70.4662 39.8364 71.1835 39.9777 71.5081 40.517C72.0474 41.4071 72.3929 43.3181 69.3301 46.6113Z" fill="#7CCF92" stroke="#002346" stroke-width="0.523565" stroke-miterlimit="10"/>
<path d="M69.4219 46.6269C69.4219 46.6269 72.4952 50.6845 74.5842 50.4122C75.2073 50.3337 75.5842 49.7054 75.401 49.1033C75.1025 48.1085 73.9193 46.564 69.4219 46.6269Z" fill="#7CCF92" stroke="#002346" stroke-width="0.523565" stroke-miterlimit="10"/>
<path d="M66.3284 48.6428C66.3284 48.6428 64.3912 44.8156 65.1818 42.5904C65.6268 41.3286 67.4908 41.47 67.7316 42.7894C67.9201 43.8208 67.674 45.5957 66.3284 48.6428Z" fill="#7CCF92" stroke="#002346" stroke-width="0.523565" stroke-miterlimit="10"/>
<path d="M66.4141 48.6582C66.4141 48.6582 70.6759 49.1242 72.1105 50.9985C72.922 52.0614 71.7911 53.5431 70.5554 53.0248C69.5869 52.6164 68.2308 51.4436 66.4141 48.6582Z" fill="#7CCF92" stroke="#002346" stroke-width="0.523565" stroke-miterlimit="10"/>
<path d="M63.5932 50.7628C63.5932 50.7628 59.6037 45.6842 61.4623 43.5533C61.7503 43.2234 62.1848 43.0926 62.6037 43.213C63.5618 43.4905 65.0487 44.8256 63.5932 50.7628Z" fill="#7CCF92" stroke="#002346" stroke-width="0.523565" stroke-miterlimit="10"/>
<path d="M63.5938 50.7627C63.5938 50.7627 66.6095 50.747 68.7927 53.3386C69.2535 53.8831 69.0441 54.7418 68.3687 54.9721C67.0597 55.4119 64.9236 55.2811 63.5938 50.7627Z" fill="#7CCF92" stroke="#002346" stroke-width="0.523565" stroke-miterlimit="10"/>
<path d="M61.3836 53.0561C61.3836 53.0561 56.5092 48.9304 58.3155 46.7681C58.3155 46.7681 60.8443 44.5429 61.3836 53.0561Z" fill="#7CCF92" stroke="#002346" stroke-width="0.523565" stroke-miterlimit="10"/>
<path d="M61.3828 53.0557C61.3828 53.0557 64.2677 53.951 65.4352 55.9248C66.053 56.9614 64.9012 58.1814 63.8593 57.574C63.0792 57.1185 62.1891 55.8934 61.3828 53.0557Z" fill="#7CCF92" stroke="#002346" stroke-width="0.523565" stroke-miterlimit="10"/>
<path d="M58.915 55.972C58.915 55.972 54.8783 54.0558 55.716 51.2861C55.9882 50.3804 57.2239 50.2023 57.7527 50.9877C58.2553 51.7312 58.7265 53.1867 58.9202 55.9773L58.915 55.972Z" fill="#7CCF92" stroke="#002346" stroke-width="0.523565" stroke-miterlimit="10"/>
<path d="M58.8281 55.8096C58.8281 55.8096 60.0009 60.1185 62.8753 59.7887C63.8177 59.6787 64.2104 58.4955 63.5297 57.841C62.8857 57.218 61.535 56.4954 58.8281 55.8148V55.8096Z" fill="#7CCF92" stroke="#002346" stroke-width="0.523565" stroke-miterlimit="10"/>
<path d="M28.7031 41.3496C28.7031 41.3496 40.8341 46.7162 44.698 60.8262" stroke="#002346" stroke-width="0.523565" stroke-linecap="round" stroke-linejoin="round"/>
<path d="M30.7569 42.4642C30.7569 42.4642 25.6836 42.2129 24.2699 40.4171C23.6993 39.6893 24.0814 38.6108 24.9663 38.3438C26.2071 37.9668 28.4846 38.0977 30.7569 42.4642Z" fill="#7CCF92" stroke="#002346" stroke-width="0.523565" stroke-miterlimit="10"/>
<path d="M32.4338 43.6111C32.4338 43.6111 30.1196 39.8258 30.5647 37.7053C30.727 36.9305 31.6799 36.5744 32.3029 37.0613C33.1301 37.7053 33.9102 39.3546 32.4338 43.6111Z" fill="#7CCF92" stroke="#002346" stroke-width="0.523565" stroke-miterlimit="10"/>
<path d="M32.4327 43.6112C32.4327 43.6112 28.5374 43.0719 26.8882 44.4227C26.1552 45.0248 26.4274 46.2395 27.3594 46.4123C28.3332 46.5955 29.9562 46.1976 32.4327 43.6112Z" fill="#7CCF92" stroke="#002346" stroke-width="0.523565" stroke-miterlimit="10"/>
<path d="M34.9913 45.3753C34.9913 45.3753 33.7976 40.4486 35.3578 38.9041C35.8499 38.4172 36.6562 38.5952 36.9128 39.2391C37.2636 40.1292 37.2531 41.9355 34.9913 45.3753Z" fill="#7CCF92" stroke="#002346" stroke-width="0.523565" stroke-miterlimit="10"/>
<path d="M35.0529 45.4277C35.0529 45.4277 30.0266 46.0927 29.1523 48.1084C28.8748 48.7419 29.3356 49.433 30.0267 49.433C30.9848 49.4382 32.6602 48.7786 35.0529 45.4277Z" fill="#7CCF92" stroke="#002346" stroke-width="0.523565" stroke-miterlimit="10"/>
<path d="M37.7317 48.0241C37.7317 48.0241 36.2919 40.6262 39.5432 40.9874C39.5432 40.9874 42.7841 42.422 37.7317 48.0241Z" fill="#7CCF92" stroke="#002346" stroke-width="0.523565" stroke-miterlimit="10"/>
<path d="M37.7276 48.0244C37.7276 48.0244 33.047 48.1762 32.115 49.7888C31.9265 50.1187 31.9946 50.5323 32.2564 50.8098C32.8742 51.4538 34.492 52.1972 37.7276 48.0244Z" fill="#7CCF92" stroke="#002346" stroke-width="0.523565" stroke-miterlimit="10"/>
<path d="M39.8438 50.6691C39.8438 50.6691 39.9328 46.6638 42.5558 45.3078C43.1265 45.0093 43.8438 45.3811 43.8961 46.0198C43.9799 47.0512 43.3831 48.7371 39.8438 50.6691Z" fill="#7CCF92" stroke="#002346" stroke-width="0.523565" stroke-miterlimit="10"/>
<path d="M39.8441 50.6689C39.8441 50.6689 35.3362 51.5799 34.5718 53.5538C34.3833 54.0459 34.6241 54.5904 35.1267 54.7423C35.9802 55.0041 37.6346 54.7213 39.8441 50.6689Z" fill="#7CCF92" stroke="#002346" stroke-width="0.523565" stroke-miterlimit="10"/>
<path d="M41.875 53.8519C41.875 53.8519 42.3305 49.4853 44.8593 48.967C45.409 48.8571 45.9431 49.2707 45.9483 49.8309C45.9588 50.7314 45.3148 52.2131 41.875 53.8519Z" fill="#7CCF92" stroke="#002346" stroke-width="0.523565" stroke-miterlimit="10"/>
<path d="M41.8795 53.8516C41.8795 53.8516 38.424 54.3489 37.0994 55.7102C36.3821 56.4432 37.1203 57.6684 38.0993 57.3542C38.9737 57.0767 40.2407 56.1971 41.8795 53.8516Z" fill="#7CCF92" stroke="#002346" stroke-width="0.523565" stroke-miterlimit="10"/>
<path d="M43.5547 57.5587C43.5547 57.5587 44.0573 54.3755 45.8113 53.9514C46.3767 53.8152 46.916 54.2865 46.9003 54.8676C46.8793 55.7577 46.3401 57.0718 43.5547 57.5587Z" fill="#7CCF92" stroke="#002346" stroke-width="0.523565" stroke-miterlimit="10"/>
<path d="M43.5545 57.5589C43.5545 57.5589 38.455 56.8783 38.0938 59.4071C38.0938 59.4071 38.9053 62.2134 43.5545 57.5589Z" fill="#7CCF92" stroke="#002346" stroke-width="0.523565" stroke-miterlimit="10"/>
<path d="M59.7611 38.4639C59.7611 38.4639 52.6406 47.8043 51.1484 60.8253" stroke="#002346" stroke-width="0.523565" stroke-linecap="round" stroke-linejoin="round"/>
<path d="M58.2963 40.5217C58.2963 40.5217 58.0293 36.6264 60.7361 36.2494C61.6785 36.1185 62.422 37.0714 62.0398 37.9405C61.6995 38.7154 60.7204 39.6578 58.2911 40.5217H58.2963Z" fill="#7CCF92" stroke="#002346" stroke-width="0.523565" stroke-miterlimit="10"/>
<path d="M56.9688 43.1716C56.9688 43.1716 59.5447 40.1611 61.6651 41.5223C61.8903 41.6637 62.0107 41.9307 61.9583 42.1925C61.8432 42.7894 61.0264 43.6846 56.9688 43.1716Z" fill="#7CCF92" stroke="#002346" stroke-width="0.523565" stroke-miterlimit="10"/>
<path d="M56.872 43.1559C56.872 43.1559 53.2594 38.8208 55.427 37.3758C55.427 37.3758 58.317 35.9307 56.872 43.1559Z" fill="#7CCF92" stroke="#002346" stroke-width="0.523565" stroke-miterlimit="10"/>
<path d="M55.5569 45.5535C55.5569 45.5535 51.9809 42.5587 53.7034 41.0509C53.7034 41.0509 55.3265 39.6477 55.5569 45.5535Z" fill="#7CCF92" stroke="#002346" stroke-width="0.523565" stroke-miterlimit="10"/>
<path d="M55.5547 45.5535C55.5547 45.5535 59.0364 43.8153 60.6385 44.653C61.1306 44.9096 61.2877 45.5692 60.9369 45.9933C60.4605 46.564 59.1463 47.009 55.5547 45.5535Z" fill="#7CCF92" stroke="#002346" stroke-width="0.523565" stroke-miterlimit="10"/>
<path d="M54.3438 48.9354C54.3438 48.9354 57.082 46.7417 58.9825 47.37C59.705 47.6108 59.9354 48.5794 59.3543 49.0715C58.7731 49.5637 57.4118 49.8412 54.3438 48.9354Z" fill="#7CCF92" stroke="#002346" stroke-width="0.523565" stroke-miterlimit="10"/>
<path d="M54.07 48.6738C54.07 48.6738 53.2899 45.2549 51.4155 44.5586C50.7035 44.2968 49.9181 44.9094 50.0647 45.6581C50.2113 46.4068 51.1066 47.4696 54.07 48.6738Z" fill="#7CCF92" stroke="#002346" stroke-width="0.523565" stroke-miterlimit="10"/>
<path d="M53.2631 51.1034C53.2631 51.1034 56.0536 49.2447 57.6086 50.695C57.8861 50.9516 57.9071 51.3913 57.6348 51.6531C57.1636 52.1086 56.0118 52.4804 53.2578 51.1034H53.2631Z" fill="#7CCF92" stroke="#002346" stroke-width="0.523565" stroke-miterlimit="10"/>
<path d="M53.2605 51.1031C53.2605 51.1031 50.0406 50.1346 50.5956 48.5063C50.6689 48.2864 50.8678 48.1293 51.0982 48.0926C51.6636 48.0036 52.7422 48.2445 53.2658 51.1031H53.2605Z" fill="#7CCF92" stroke="#002346" stroke-width="0.523565" stroke-miterlimit="10"/>
<path d="M52.3047 54.5328C52.3047 54.5328 54.001 52.8783 55.3989 53.6898C55.7445 53.894 55.912 54.3338 55.7236 54.6898C55.4827 55.1401 54.6974 55.4804 52.3047 54.5328Z" fill="#7CCF92" stroke="#002346" stroke-width="0.523565" stroke-miterlimit="10"/>
<path d="M52.3054 54.533C52.3054 54.533 52.2007 52.2974 50.5515 51.889C50.2478 51.8157 49.9599 52.0618 49.986 52.3707C50.0436 53.0513 50.4311 54.1665 52.3054 54.533Z" fill="#7CCF92" stroke="#002346" stroke-width="0.523565" stroke-miterlimit="10"/>
<path d="M51.4609 58.3236C51.4609 58.3236 53.1939 56.3026 54.8536 56.6481C55.2411 56.7319 55.4086 57.2188 55.1521 57.5225C54.7542 57.999 53.7908 58.533 51.4609 58.3183V58.3236Z" fill="#7CCF92" stroke="#002346" stroke-width="0.523565" stroke-miterlimit="10"/>
<path d="M51.6577 58.3236C51.6577 58.3236 49.9246 56.3026 48.2649 56.6481C47.8775 56.7319 47.71 57.2188 47.9665 57.5225C48.3644 57.999 49.3278 58.533 51.6577 58.3183V58.3236Z" fill="#7CCF92" stroke="#002346" stroke-width="0.523565" stroke-miterlimit="10"/>
<path d="M65.1794 60.8516H36.2891V68.4328H65.1794V60.8516Z" fill="#FFA081" stroke="#002346" stroke-width="0.523565" stroke-miterlimit="10"/>
<path d="M38.4609 68.4336L40.6233 88.6537H61.2098L63.5031 68.5121L38.4609 68.4336Z" fill="#FFA081" stroke="#002346" stroke-width="0.523565" stroke-miterlimit="10"/>
</svg>
